<svg width="512" height="512" viewBox="0 0 512 512" fill="none" xmlns="http://www.w3.org/2000/svg">
  <rect width="512" height="512" rx="64" fill="#00A896"/>
  <path d="M256 128C209.206 128 171 166.206 171 213V299C171 345.794 209.206 384 256 384C302.794 384 341 345.794 341 299V213C341 166.206 302.794 128 256 128Z" fill="white"/>
  <circle cx="256" cy="213" r="43" fill="#00A896"/>
  <path d="M213 299C213 322.196 231.804 341 255 341C278.196 341 297 322.196 297 299" stroke="white" stroke-width="11" stroke-linecap="round"/>
  <path d="M128 256H171M341 256H384" stroke="white" stroke-width="11" stroke-linecap="round"/>
  <path d="M256 128V171M256 341V384" stroke="white" stroke-width="11" stroke-linecap="round"/>
  <path d="M192 192L213 213M299 213L320 192" stroke="white" stroke-width="8" stroke-linecap="round"/>
  <path d="M192 320L213 299M299 299L320 320" stroke="white" stroke-width="8" stroke-linecap="round"/>
</svg>